<?xml version="1.0" standalone="no"?>
<!DOCTYPE svg PUBLIC "-//W3C//DTD SVG 20010904//EN"
 "http://www.w3.org/TR/2001/REC-SVG-20010904/DTD/svg10.dtd">
<svg version="1.0" xmlns="http://www.w3.org/2000/svg"
 width="423.000000pt" height="432.000000pt" viewBox="0 0 423.000000 432.000000"
 preserveAspectRatio="xMidYMid meet">
<metadata>
Created by potrace 1.16, written by Peter Selinger 2001-2019
</metadata>
<g transform="translate(0.000000,432.000000) scale(0.100000,-0.100000)"
fill="#000000" stroke="none">
<path d="M2275 3776 l-240 -124 -31 -93 c-17 -52 -53 -161 -79 -244 -26 -82
-58 -184 -71 -225 -13 -41 -35 -109 -48 -150 -100 -309 -156 -489 -156 -499 0
-8 138 -11 530 -11 292 0 530 1 530 3 0 2 -39 115 -86 253 -47 137 -103 301
-124 364 -21 63 -68 203 -105 310 l-66 194 27 51 c15 27 58 103 96 169 38 65
67 120 66 122 -2 1 -111 -53 -243 -120z"/>
<path d="M3040 3224 c-30 -90 -104 -173 -211 -237 l-58 -34 40 -12 c62 -19
117 -75 158 -161 34 -73 36 -79 38 -210 2 -74 0 -598 -4 -1165 l-8 -1030 -47
140 c-25 77 -81 248 -123 380 -42 132 -94 292 -115 356 -62 192 -76 162 113
250 l162 76 3 311 c1 172 -1 312 -4 312 -4 0 -29 -21 -56 -46 l-49 -45 -37 22
c-20 12 -48 30 -62 40 -19 13 -49 17 -125 18 -55 1 -105 -2 -111 -6 -6 -5 -46
-120 -89 -258 -43 -137 -87 -281 -100 -320 -12 -38 -34 -110 -49 -160 -68
-223 -119 -381 -126 -388 -4 -4 -26 52 -50 125 -45 140 -146 448 -256 783 -37
110 -71 206 -77 213 -7 9 -40 12 -116 11 l-106 -1 -52 -39 c-60 -45 -74 -68
-102 -165 -11 -38 -38 -125 -60 -194 -49 -156 -115 -365 -184 -585 l-53 -170
208 -3 c114 -1 208 -4 208 -7 0 -2 -4 -15 -10 -29 -9 -26 -10 -26 -130 -26
l-120 0 0 -59 c0 -78 16 -91 117 -91 82 0 83 -1 57 -71 -8 -24 -24 -73 -34
-109 -18 -62 -37 -123 -93 -305 -14 -44 -28 -88 -32 -98 -7 -16 40 -17 894
-17 l901 0 0 1248 0 1247 24 50 c13 28 44 69 70 92 44 39 121 82 148 84 7 0
-7 7 -32 14 -86 27 -173 125 -225 253 l-22 55 -13 -39z"/>
<path d="M3130 2132 l0 -198 33 1 c48 1 73 12 85 41 15 32 16 308 2 335 -9 15
-22 19 -65 19 l-55 0 0 -198z"/>
<path d="M2063 2209 c-18 -11 -35 -28 -38 -38 -3 -10 -21 -26 -40 -37 -38 -20
-34 -33 15 -59 29 -15 77 -7 133 22 26 13 33 12 92 -12 47 -18 70 -23 87 -16
27 10 67 51 49 51 -6 0 -36 25 -66 55 -55 55 -88 68 -112 44 -8 -8 -17 -8 -31
0 -30 16 -53 13 -89 -10z"/>
</g>
</svg>
