<?xml version="1.0" encoding="utf-8"?>
<!-- Generator: Adobe Illustrator 25.0.0, SVG Export Plug-In . SVG Version: 6.00 Build 0)  -->
<svg version="1.1" id="Capa_1" xmlns="http://www.w3.org/2000/svg" xmlns:xlink="http://www.w3.org/1999/xlink" x="0px" y="0px"
	 viewBox="0 0 423 432" style="enable-background:new 0 0 423 432;" xml:space="preserve">
<style type="text/css">
	.st0{fill:#FFFFFF;}
</style>
<g transform="translate(0.000000,432.000000) scale(0.100000,-0.100000)">
	<path class="st0" d="M2275,3776l-240-124l-31-93c-17-52-53-161-79-244c-26-82-58-184-71-225s-35-109-48-150
		c-100-309-156-489-156-499c0-8,138-11,530-11c292,0,530,1,530,3s-39,115-86,253c-47,137-103,301-124,364s-68,203-105,310l-66,194
		l27,51c15,27,58,103,96,169c38,65,67,120,66,122C2516,3897,2407,3843,2275,3776z"/>
	<path class="st0" d="M3040,3224c-30-90-104-173-211-237l-58-34l40-12c62-19,117-75,158-161c34-73,36-79,38-210c2-74,0-598-4-1165
		l-8-1030l-47,140c-25,77-81,248-123,380s-94,292-115,356c-62,192-76,162,113,250l162,76l3,311c1,172-1,312-4,312c-4,0-29-21-56-46
		l-49-45l-37,22c-20,12-48,30-62,40c-19,13-49,17-125,18c-55,1-105-2-111-6c-6-5-46-120-89-258c-43-137-87-281-100-320
		c-12-38-34-110-49-160c-68-223-119-381-126-388c-4-4-26,52-50,125c-45,140-146,448-256,783c-37,110-71,206-77,213
		c-7,9-40,12-116,11l-106-1l-52-39c-60-45-74-68-102-165c-11-38-38-125-60-194c-49-156-115-365-184-585l-53-170l208-3
		c114-1,208-4,208-7c0-2-4-15-10-29c-9-26-10-26-130-26h-120v-59c0-78,16-91,117-91c82,0,83-1,57-71c-8-24-24-73-34-109
		c-18-62-37-123-93-305c-14-44-28-88-32-98c-7-16,40-17,894-17h901v1248v1247l24,50c13,28,44,69,70,92c44,39,121,82,148,84
		c7,0-7,7-32,14c-86,27-173,125-225,253l-22,55L3040,3224z"/>
	<path class="st0" d="M3130,2132v-198l33,1c48,1,73,12,85,41c15,32,16,308,2,335c-9,15-22,19-65,19h-55V2132z"/>
	<path class="st0" d="M2063,2209c-18-11-35-28-38-38s-21-26-40-37c-38-20-34-33,15-59c29-15,77-7,133,22c26,13,33,12,92-12
		c47-18,70-23,87-16c27,10,67,51,49,51c-6,0-36,25-66,55c-55,55-88,68-112,44c-8-8-17-8-31,0C2122,2235,2099,2232,2063,2209z"/>
</g>
</svg>
